<svg width="200" height="126" viewBox="0 0 200 126" fill="none" xmlns="http://www.w3.org/2000/svg">
<path d="M100.344 35.712C100.344 42.9653 98.4667 49.6213 94.712 55.68C90.9573 61.7387 85.496 66.688 78.328 70.528C71.16 74.368 62.6267 76.6293 52.728 77.312L47.224 108.16C45.0907 120.021 39.288 125.952 29.816 125.952C24.6107 125.952 19.7893 124.416 15.352 121.344C11 118.272 7.50133 113.579 4.856 107.264C2.21067 100.949 0.888 93.184 0.888 83.968C0.888 66.6453 3.66133 51.968 9.208 39.936C14.84 27.8187 22.3493 18.7733 31.736 12.8C41.208 6.74133 51.6187 3.712 62.968 3.712C70.9893 3.712 77.7733 5.12 83.32 7.936C88.952 10.752 93.176 14.592 95.992 19.456C98.8933 24.2347 100.344 29.6533 100.344 35.712ZM55.032 64.128C72.5253 61.9093 81.272 52.8213 81.272 36.864C81.272 31.232 79.3947 26.6667 75.64 23.168C71.9707 19.584 66.2533 17.792 58.488 17.792C49.6987 17.792 42.0187 20.5653 35.448 26.112C28.9627 31.6587 23.928 39.3813 20.344 49.28C16.8453 59.0933 15.096 70.3147 15.096 82.944C15.096 88.2347 15.608 92.928 16.632 97.024C17.7413 101.12 19.1067 104.32 20.728 106.624C22.4347 108.843 24.056 109.952 25.592 109.952C27.7253 109.952 29.3467 107.008 30.456 101.12L34.68 76.928C31.352 76.416 29.9013 76.2027 30.328 76.288C27.768 75.8613 26.104 75.0933 25.336 73.984C24.568 72.7893 24.184 71.296 24.184 69.504C24.184 67.6267 24.696 66.1333 25.72 65.024C26.8293 63.9147 28.3227 63.36 30.2 63.36C31.0533 63.36 31.6933 63.4027 32.12 63.488C34.168 63.8293 35.7467 64.0427 36.856 64.128C37.9653 57.472 39.544 48.5547 41.592 37.376C42.104 34.4747 43.256 32.4267 45.048 31.232C46.9253 29.952 49.1013 29.312 51.576 29.312C54.392 29.312 56.3973 29.8667 57.592 30.976C58.872 32 59.512 33.664 59.512 35.968C59.512 37.3333 59.4267 38.4427 59.256 39.296L55.032 64.128ZM154.857 83.456C155.966 83.456 156.82 83.968 157.417 84.992C158.1 86.016 158.441 87.424 158.441 89.216C158.441 92.6293 157.63 95.2747 156.009 97.152C152.852 100.992 148.372 104.533 142.569 107.776C136.852 111.019 130.708 112.64 124.137 112.64C115.177 112.64 108.222 110.208 103.273 105.344C98.3237 100.48 95.849 93.824 95.849 85.376C95.849 79.488 97.0863 74.0267 99.561 68.992C102.036 63.872 105.449 59.8187 109.801 56.832C114.238 53.8453 119.23 52.352 124.777 52.352C129.726 52.352 133.694 53.8453 136.681 56.832C139.668 59.7333 141.161 63.7013 141.161 68.736C141.161 74.624 139.028 79.7013 134.761 83.968C130.58 88.1493 123.454 91.4773 113.385 93.952C115.518 97.8773 119.572 99.84 125.545 99.84C129.385 99.84 133.737 98.5173 138.601 95.872C143.55 93.1413 147.817 89.6 151.401 85.248C152.425 84.0533 153.577 83.456 154.857 83.456ZM122.601 64.896C119.444 64.896 116.756 66.7307 114.537 70.4C112.404 74.0693 111.337 78.5067 111.337 83.712V83.968C116.372 82.7733 120.34 80.9813 123.241 78.592C126.142 76.2027 127.593 73.4293 127.593 70.272C127.593 68.6507 127.124 67.3707 126.185 66.432C125.332 65.408 124.137 64.896 122.601 64.896ZM169.139 64.512C168.968 68.7787 168.883 72.1067 168.883 74.496C168.883 80.64 169.182 85.4613 169.779 88.96C170.462 92.3733 171.528 94.848 172.979 96.384C174.515 97.8347 176.606 98.56 179.251 98.56C180.616 98.56 182.238 98.1333 184.115 97.28C185.992 96.4267 187.699 95.3173 189.235 93.952C190.174 93.0987 191.112 92.672 192.051 92.672C193.075 92.672 193.886 93.2693 194.483 94.464C195.166 95.5733 195.507 96.9387 195.507 98.56C195.507 100.181 195.166 101.76 194.483 103.296C193.886 104.832 192.947 106.112 191.667 107.136C187.23 110.805 182.195 112.64 176.563 112.64C168.456 112.64 162.526 109.269 158.771 102.528C155.016 95.7013 153.139 86.8267 153.139 75.904C153.139 72.1493 153.267 68.352 153.523 64.512H148.531C145.971 64.512 144.222 64.0427 143.283 63.104C142.43 62.1653 142.003 60.672 142.003 58.624C142.003 53.8453 143.923 51.456 147.763 51.456H155.059C156.51 42.0693 158.728 33.4933 161.715 25.728C164.702 17.9627 168.286 11.776 172.467 7.16799C176.734 2.56 181.299 0.255997 186.163 0.255997C189.747 0.255997 192.563 1.83466 194.611 4.992C196.659 8.14933 197.683 12.1173 197.683 16.896C197.683 30.1227 192.136 41.6427 181.043 51.456H195.379C196.744 51.456 197.726 51.7547 198.323 52.352C198.92 52.9493 199.219 54.0587 199.219 55.68C199.219 61.568 194.398 64.512 184.755 64.512H169.139ZM182.707 12.544C181.427 12.544 179.976 14.1653 178.355 17.408C176.819 20.5653 175.326 25.0027 173.875 30.72C172.51 36.352 171.358 42.624 170.419 49.536C175.454 45.184 179.208 40.32 181.683 34.944C184.243 29.4827 185.523 24.5333 185.523 20.096C185.523 15.0613 184.584 12.544 182.707 12.544Z" fill="currentColor"/>
</svg>
